<?xml version="1.0" encoding="utf-8"?>
<!-- Generator: Adobe Illustrator 16.0.0, SVG Export Plug-In . SVG Version: 6.00 Build 0)  -->
<!DOCTYPE svg PUBLIC "-//W3C//DTD SVG 1.1//EN" "http://www.w3.org/Graphics/SVG/1.1/DTD/svg11.dtd">
<svg version="1.1" id="Capa_1" xmlns="http://www.w3.org/2000/svg" xmlns:xlink="http://www.w3.org/1999/xlink" x="0px" y="0px"
	 width="512px" height="512px" viewBox="0 0 512 512" enable-background="new 0 0 512 512" xml:space="preserve">
<g>
	<g>
		<g>
			<g>
				<path fill="#FFFFFF" d="M256.024,429.257L57.049,253.26c-13.016-13.017-34.203-13.017-47.219,0
					c-13.016,13.016-13.016,34.203,0,47.219l222.086,196.52c6.641,6.641,15.342,9.764,24.041,9.696
					c8.699,0.067,17.467-3.056,24.108-9.696l222.22-196.518c12.952-13.016,12.952-34.203,0-47.219
					c-12.951-13.017-34.27-13.017-47.22,0L256.024,429.257z"/>
				<path fill="#FFFFFF" d="M256.024,191.097L57.049,15.233C43.966,2.017,22.779,2.017,9.763,15.1
					c-13.016,12.951-13.016,34.271,0,47.22l222.153,196.518c6.641,6.641,15.342,9.829,24.041,9.696
					c8.699,0.066,17.467-3.056,24.108-9.696l222.22-196.453c12.952-13.083,12.952-34.337,0-47.22
					c-12.951-13.083-34.27-13.083-47.22,0L256.024,191.097z"/>
			</g>
		</g>
	</g>
</g>
</svg>
