<?xml version="1.0" standalone="no"?>
<!DOCTYPE svg PUBLIC "-//W3C//DTD SVG 20010904//EN"
 "http://www.w3.org/TR/2001/REC-SVG-20010904/DTD/svg10.dtd">
<svg version="1.0" xmlns="http://www.w3.org/2000/svg"
 width="987.000000pt" height="987.000000pt" viewBox="0 0 987.000000 987.000000"
 preserveAspectRatio="xMidYMid meet">
<metadata>
Created by potrace 1.11, written by Peter Selinger 2001-2013
</metadata>
<g transform="translate(0.000000,987.000000) scale(0.100000,-0.100000)"
fill="#000000" stroke="none">
<path d="M4540 9754 c-52 -7 -118 -15 -147 -19 -29 -3 -75 -13 -103 -21 -28
-8 -67 -16 -88 -18 -20 -2 -75 -15 -122 -29 -47 -14 -137 -42 -200 -60 -218
-66 -312 -109 -567 -263 -115 -70 -188 -107 -222 -115 -64 -14 -227 -80 -309
-125 -34 -19 -90 -59 -125 -87 -167 -140 -186 -154 -387 -304 -117 -87 -190
-163 -263 -273 -73 -112 -112 -152 -171 -180 -96 -45 -276 -243 -381 -419 -27
-45 -87 -130 -132 -187 -178 -226 -280 -411 -403 -729 -106 -271 -133 -350
-168 -482 -46 -169 -51 -200 -58 -323 -3 -63 -8 -118 -10 -122 -7 -11 -19
-236 -19 -358 0 -303 20 -630 51 -839 26 -174 65 -377 90 -466 15 -49 28 -98
30 -109 6 -30 94 -319 104 -341 5 -11 34 -83 65 -160 32 -77 65 -147 74 -155
10 -9 20 -20 22 -25 2 -6 33 -55 69 -110 36 -55 99 -156 140 -223 159 -262
406 -557 681 -810 39 -36 59 -62 63 -84 10 -57 62 -153 97 -183 19 -15 68 -44
109 -63 41 -20 95 -55 120 -78 141 -134 274 -230 446 -321 275 -145 438 -221
571 -264 235 -76 258 -93 193 -140 -36 -27 -121 -135 -113 -143 4 -3 15 -6 25
-6 29 0 21 -30 -26 -100 -25 -36 -43 -66 -41 -68 2 -2 12 1 23 7 23 12 42 -3
42 -35 0 -31 39 -77 54 -64 17 13 26 3 26 -31 0 -17 -16 -47 -44 -81 l-44 -55
25 -44 c32 -55 63 -89 80 -89 14 0 18 -26 6 -32 -13 -5 -43 -68 -43 -88 0 -31
25 -40 114 -42 51 -2 91 -7 97 -14 6 -7 -1 -24 -21 -50 -42 -52 -37 -76 18
-88 28 -7 41 -14 38 -23 -8 -21 20 -15 60 12 39 26 93 45 134 45 35 0 127 26
153 43 24 15 96 34 169 42 26 4 54 13 62 21 8 8 21 14 28 14 28 -1 183 88 256
148 152 124 136 114 166 98 49 -25 142 -3 204 49 45 38 150 178 172 230 20 46
93 115 122 115 26 0 98 34 186 87 92 56 260 136 327 156 28 8 74 24 103 36 58
23 97 27 108 10 3 -6 6 -36 5 -65 l-1 -54 48 0 c26 0 61 4 79 9 69 20 94 -37
69 -159 -9 -41 -16 -78 -16 -81 0 -10 59 5 110 28 25 11 77 43 115 71 39 28
79 58 90 65 11 8 38 55 59 106 21 50 42 91 46 91 12 0 19 -50 15 -108 -5 -73
16 -68 118 27 100 94 239 335 306 530 40 118 64 143 60 65 -1 -27 -6 -60 -11
-74 -12 -34 13 -98 56 -139 34 -33 34 -33 48 -12 9 12 43 53 78 91 34 39 74
87 87 108 32 47 191 202 303 296 47 39 87 73 90 76 3 3 46 41 95 85 170 151
312 304 408 438 32 45 64 90 72 100 8 9 15 19 15 22 0 4 84 142 181 295 56 90
163 299 214 420 13 30 60 154 105 275 45 121 86 227 90 235 20 37 90 367 105
490 9 74 27 187 40 250 13 63 29 156 35 205 6 50 13 101 15 115 2 14 6 50 9
80 3 30 11 105 17 165 17 172 14 762 -6 895 -2 14 -9 60 -15 103 -6 42 -23
117 -37 165 -14 48 -36 125 -48 172 -35 133 -67 206 -205 484 -72 142 -130
263 -130 268 0 5 -8 22 -19 36 -10 15 -31 50 -46 77 -98 176 -152 252 -317
448 -62 73 -135 160 -162 193 -73 89 -151 169 -266 274 -58 52 -130 118 -160
146 -77 73 -111 100 -230 189 -58 43 -132 99 -165 125 -33 26 -80 58 -105 70
-25 13 -63 35 -86 51 -48 33 -128 76 -364 196 -164 83 -260 124 -405 172 -85
28 -244 90 -286 111 -44 23 -142 48 -387 101 -292 62 -295 63 -479 74 -50 3
-104 12 -120 19 -41 20 -505 27 -633 10z"/>
</g>
</svg>
